# xmcd
#
# Track frame offsets:
# 150
# 13427
# 28562
# 44655
# 62949
# 76288
# 97906
# 112729
# 129378
# 142343
# 159286
#
# Disc length: 2435 seconds
#
#
# Revision: 0
# Processed by: cddbd v1.5.2PL0 Copyright (c) Steve Scherf et al.
# Submitted via: FreeRIP 2.92 
#
DISCID=9009810b
DTITLE=Lisa Theunissen - HerStory
DYEAR=2007
DGENRE=Soul
TTITLE0=Take A Back Seat, Boy!
TTITLE1=Sweep Me Off My Feat
TTITLE2=Tell Me How To Love
TTITLE3=If Only
TTITLE4=HerStory
TTITLE5=Moving On
TTITLE6=This is Our Song
TTITLE7=Too Long Too Late
TTITLE8=Lost Property
TTITLE9=Times
TTITLE10=Mama Said
EXTD=
EXTT0=
EXTT1=
EXTT2=
EXTT3=
EXTT4=
EXTT5=
EXTT6=
EXTT7=
EXTT8=
EXTT9=
EXTT10=
PLAYORDER=
